<?xml version="1.0" standalone="no"?>
<!DOCTYPE svg PUBLIC "-//W3C//DTD SVG 20010904//EN"
 "http://www.w3.org/TR/2001/REC-SVG-20010904/DTD/svg10.dtd">
<svg version="1.0" xmlns="http://www.w3.org/2000/svg"
 width="440.000000pt" height="440.000000pt" viewBox="0 0 440.000000 440.000000"
 preserveAspectRatio="xMidYMid meet">
<metadata>
Created by potrace 1.11, written by Peter Selinger 2001-2013
</metadata>
<g transform="translate(0.000000,440.000000) scale(0.100000,-0.100000)"
fill="#000000" stroke="none">
<path d="M2053 4180 c-45 -27 -55 -51 -44 -100 10 -47 5 -76 -20 -101 -10 -10
-15 -26 -12 -37 3 -13 -4 -26 -21 -40 -15 -12 -26 -30 -26 -45 0 -32 -36 -77
-61 -77 -15 0 -19 -6 -16 -25 1 -13 6 -27 10 -31 3 -4 -3 -18 -13 -32 -11 -13
-20 -35 -20 -47 0 -12 -9 -34 -20 -48 -11 -14 -20 -37 -20 -51 0 -14 -4 -26
-8 -26 -4 0 -14 -21 -21 -47 -8 -27 -19 -61 -26 -78 -7 -16 -20 -57 -30 -90
-10 -33 -31 -87 -47 -120 -15 -33 -28 -66 -27 -75 3 -22 -82 -201 -92 -194 -5
3 -9 -4 -9 -16 0 -11 -13 -46 -29 -78 -16 -31 -36 -81 -44 -110 -21 -69 -41
-102 -82 -132 -24 -17 -33 -30 -29 -43 3 -10 0 -24 -6 -32 -6 -8 -9 -22 -6
-32 3 -10 1 -25 -4 -33 -9 -13 -11 -13 -20 0 -5 8 -10 21 -10 28 0 6 -6 12
-12 12 -7 0 -21 17 -30 38 -18 39 -104 151 -163 214 -27 28 -35 45 -35 72 0
29 -4 36 -20 36 -14 0 -32 19 -57 61 -21 34 -66 101 -100 150 -35 48 -63 91
-63 95 0 4 -11 22 -25 40 -14 19 -22 39 -19 48 3 9 1 16 -6 16 -6 0 -9 4 -5 9
3 5 1 12 -5 16 -5 3 -10 -1 -10 -9 0 -9 -4 -16 -10 -16 -5 0 -10 7 -10 15 0 8
-11 22 -25 31 -14 9 -25 25 -25 35 0 11 -12 29 -26 42 -77 65 -94 85 -94 113
0 22 -3 25 -12 16 -9 -9 -29 6 -90 70 -42 46 -78 90 -78 98 0 8 -15 30 -34 50
-19 19 -41 59 -51 89 -10 29 -24 65 -31 80 -8 14 -14 30 -14 34 0 8 -4 14 -45
60 -14 15 -25 32 -25 38 0 21 -33 6 -76 -36 l-47 -44 6 -65 c4 -45 3 -66 -5
-68 -9 -3 -9 -18 1 -60 12 -48 17 -288 10 -428 -5 -83 4 -180 23 -249 11 -40
17 -82 15 -92 -3 -11 6 -47 19 -81 25 -63 27 -116 6 -155 -8 -14 -9 -30 -3
-46 5 -13 6 -28 2 -33 -19 -20 -19 -91 0 -130 19 -40 27 -154 10 -154 -5 0 -8
-14 -7 -32 1 -25 7 -34 26 -38 l25 -6 -22 -12 c-25 -14 -29 -42 -12 -74 7 -12
7 -24 2 -29 -15 -15 -3 -69 15 -69 13 0 13 -2 -2 -18 -23 -27 -15 -159 10
-154 17 4 13 -9 -13 -39 -15 -18 -12 -74 5 -91 7 -7 12 -28 12 -47 0 -27 -3
-32 -10 -21 -8 13 -10 12 -10 -3 0 -10 5 -27 10 -37 7 -13 7 -21 0 -25 -15 -9
-12 -51 5 -65 19 -16 19 -30 -2 -45 -11 -8 -14 -18 -8 -31 4 -10 8 -38 9 -61
0 -24 4 -43 7 -43 7 0 3 -79 -5 -87 -9 -9 -7 -56 4 -73 6 -9 5 -17 -1 -21 -7
-4 -7 -26 1 -66 11 -53 10 -113 -1 -178 -3 -14 2 -21 19 -23 18 -3 22 -10 22
-41 0 -21 3 -41 7 -45 4 -4 7 -31 8 -61 0 -29 4 -57 8 -61 13 -14 8 -64 -7
-64 -15 0 -32 -52 -27 -85 2 -11 9 -27 18 -37 9 -11 11 -18 4 -23 -6 -3 -11
-15 -11 -26 0 -10 -7 -19 -15 -19 -20 0 -20 -63 0 -80 11 -9 14 -22 10 -41 -5
-21 -2 -31 14 -41 23 -14 19 -55 -7 -74 -18 -13 -8 -34 16 -34 9 0 31 9 47 20
41 27 57 25 80 -13 11 -18 27 -32 35 -32 16 0 17 9 7 100 -9 76 0 90 54 88 23
-1 47 1 53 5 6 4 20 8 31 9 11 0 31 5 45 9 19 6 13 -4 -28 -41 -28 -27 -52
-57 -52 -67 0 -10 -6 -18 -12 -18 -12 -1 -58 -34 -58 -42 0 -2 16 -4 35 -5 19
-1 35 3 35 9 0 5 4 7 8 4 13 -8 67 9 66 20 -1 5 7 15 18 22 10 7 16 18 13 23
-4 5 1 9 9 9 9 0 23 11 32 25 9 14 22 25 29 25 7 0 20 10 28 22 14 20 18 21
26 8 9 -12 13 -9 23 18 8 20 19 32 31 32 9 0 20 7 23 15 8 20 24 19 24 -1 0
-13 3 -14 14 -5 13 11 72 5 81 -9 7 -11 99 -2 103 10 2 5 12 10 23 10 10 0 19
5 19 10 0 6 9 10 20 10 11 0 20 -4 20 -10 0 -5 21 -10 48 -10 86 0 91 0 97
-10 12 -20 32 -9 43 23 l10 32 1 -32 c1 -37 0 -36 56 -23 75 19 146 21 178 5
37 -18 37 -18 37 0 0 8 6 16 13 17 6 0 19 2 27 3 8 1 21 -3 28 -9 9 -6 16 -6
20 1 8 12 177 27 194 17 15 -10 145 -11 180 -3 27 7 106 -7 122 -22 16 -14 43
-10 50 6 4 12 10 13 24 6 22 -12 102 -11 102 1 0 4 23 7 50 6 28 -1 50 -6 50
-11 0 -5 15 -7 33 -4 17 2 43 0 57 -6 41 -16 71 -17 77 -1 3 7 9 12 13 9 5 -3
11 -1 15 5 10 16 25 12 19 -5 -4 -9 0 -15 10 -15 9 0 16 7 16 15 0 8 5 15 10
15 6 0 10 -9 10 -21 l0 -21 36 23 c21 13 39 18 43 12 6 -9 327 -36 340 -28 4
2 15 -9 24 -24 13 -22 27 -30 59 -35 48 -7 64 -5 60 8 -2 5 7 6 20 2 13 -3 53
-6 91 -6 l67 0 1 -92 2 -93 9 93 10 92 72 0 c39 1 119 3 177 6 66 4 114 2 126
-5 12 -6 24 -6 29 -1 5 5 61 11 124 14 226 10 273 14 281 28 10 16 8 118 -3
124 -4 3 -5 11 -1 19 3 11 -2 15 -18 15 -20 0 -21 2 -7 13 20 16 30 45 17 52
-22 14 6 27 45 21 68 -11 100 10 51 32 -31 14 -32 35 -2 55 18 12 20 17 9 29
-7 7 -23 13 -35 14 -12 1 -29 2 -37 3 -18 1 -42 49 -29 57 15 9 10 37 -6 31
-26 -11 -26 11 0 37 26 26 32 46 14 46 -14 0 -39 26 -39 41 0 7 12 26 28 42
17 19 21 28 10 24 -13 -5 -18 5 -27 57 -16 90 -15 99 9 91 20 -6 30 10 10 17
-6 2 -6 23 0 63 13 81 13 95 -5 95 -8 0 -15 -7 -15 -15 0 -19 -14 -19 -29 -1
-9 11 -9 15 1 18 10 4 10 8 1 19 -9 11 -7 19 8 38 17 21 19 21 20 5 1 -35 18
17 18 59 1 26 -3 37 -14 37 -10 0 -13 9 -10 34 5 35 7 202 5 316 -1 48 2 67
14 76 17 12 22 34 7 34 -5 0 -8 18 -7 40 0 22 5 40 10 40 5 0 6 20 4 44 -3 25
-1 49 5 55 7 7 5 16 -6 29 -16 17 -16 20 -2 32 19 16 20 34 1 27 -18 -7 -33
67 -18 86 7 8 8 26 2 50 -4 20 -4 37 0 37 11 0 9 53 -2 68 -7 8 -7 16 1 26 9
10 8 16 -4 26 -11 9 -14 22 -10 41 5 21 1 32 -14 46 -24 20 -28 35 -6 27 16
-7 22 21 6 30 -17 11 -24 87 -10 113 11 20 11 26 -1 33 -8 5 -12 10 -10 12 43
27 52 29 71 12 10 -9 19 -13 19 -7 0 13 -35 44 -46 42 -35 -6 -42 1 -34 34 7
28 7 92 0 107 -1 3 -1 10 0 15 5 21 8 201 3 218 -2 9 -9 15 -14 12 -14 -9 -11
12 7 47 15 29 15 32 -5 59 -17 23 -20 37 -14 76 3 26 14 59 23 73 16 24 16 26
-2 45 -15 15 -18 29 -14 55 3 19 6 40 6 45 -1 6 -3 78 -6 160 -3 83 -10 156
-16 163 -6 6 -23 12 -38 12 -16 0 -30 7 -34 15 -6 16 -37 20 -50 8 -4 -4 -13
-8 -19 -9 -34 -3 -57 -19 -66 -46 -6 -16 -25 -52 -43 -79 -18 -28 -34 -62 -36
-77 -2 -15 -7 -28 -13 -30 -5 -2 -9 -10 -9 -19 0 -12 -40 -90 -87 -168 -7 -11
-16 -29 -21 -40 -6 -11 -19 -29 -31 -39 -11 -11 -21 -25 -21 -32 0 -7 -11 -26
-25 -42 -14 -17 -25 -35 -25 -41 0 -5 -8 -15 -19 -20 -19 -11 -76 -118 -73
-137 1 -7 -7 -14 -19 -17 -15 -4 -20 -11 -16 -21 4 -10 1 -16 -8 -16 -7 0 -17
-15 -20 -32 -8 -38 -32 -68 -53 -68 -10 0 -12 -7 -8 -25 5 -18 2 -27 -9 -31
-9 -4 -13 -13 -10 -24 4 -11 -3 -20 -20 -28 -14 -6 -25 -18 -25 -26 0 -22 -42
-84 -62 -91 -9 -3 -19 -16 -22 -30 -7 -27 -85 -146 -103 -158 -7 -4 -13 -17
-13 -27 0 -10 -6 -23 -13 -27 -7 -4 -21 -19 -30 -32 -9 -13 -38 -42 -64 -64
-26 -21 -49 -43 -49 -48 -1 -5 -2 -13 -3 -17 0 -5 -12 -14 -25 -20 -22 -10
-28 -7 -55 24 -17 19 -34 47 -37 62 -14 57 -34 83 -57 77 -21 -6 -22 -6 -3 10
16 12 17 18 8 27 -7 7 -12 18 -12 26 0 8 -6 20 -14 26 -7 6 -26 54 -40 106
-15 52 -31 97 -37 98 -5 2 -9 14 -9 26 0 13 -9 34 -19 48 -11 13 -23 37 -26
51 -4 15 -13 31 -20 35 -8 4 -14 10 -14 15 -2 24 -14 57 -22 57 -5 0 -9 6 -9
14 0 8 -3 16 -7 18 -5 2 -17 21 -28 43 -10 22 -27 51 -37 64 -10 13 -18 37
-18 52 0 16 -4 29 -10 29 -5 0 -10 7 -10 16 0 8 5 12 10 9 6 -3 10 -2 10 4 0
5 3 17 6 26 9 23 -26 16 -48 -10 -15 -17 -19 -18 -28 -5 -6 8 -8 30 -5 48 5
24 2 32 -9 32 -8 0 -18 5 -22 11 -4 8 1 9 17 4 20 -5 19 -3 -6 13 -40 25 -58
49 -52 66 4 9 -5 23 -21 34 -23 17 -26 26 -23 65 1 25 -2 48 -8 52 -6 3 -11 1
-11 -4 0 -6 -5 -11 -11 -11 -6 0 -9 8 -7 18 8 29 -27 153 -45 164 -9 4 -14 14
-11 22 6 15 -31 104 -54 129 -16 18 -95 57 -116 57 -6 0 -25 -9 -43 -20z m107
-456 c0 -8 7 -17 15 -20 8 -4 15 -15 15 -25 0 -10 5 -19 11 -19 6 0 9 -7 5
-15 -3 -8 2 -19 13 -24 20 -11 79 -128 105 -208 9 -28 24 -54 32 -57 9 -3 12
-11 8 -17 -4 -7 -1 -17 7 -23 14 -12 30 -36 58 -91 9 -18 15 -51 13 -82 -2
-53 -2 -53 29 -53 26 0 29 -3 24 -20 -4 -11 -2 -20 4 -20 6 0 11 -13 11 -30 0
-16 4 -30 9 -30 9 0 24 -38 22 -53 -1 -4 7 -22 16 -40 9 -18 16 -35 15 -39 -1
-5 2 -8 7 -8 5 0 8 -15 7 -32 -1 -27 3 -34 22 -36 16 -3 22 -8 18 -18 -4 -10
4 -19 23 -27 24 -10 26 -14 15 -25 -23 -21 -17 -35 13 -27 24 6 25 5 13 -10
-12 -15 -12 -18 3 -26 9 -6 17 -19 17 -29 0 -12 7 -20 18 -20 11 0 13 -3 5 -8
-6 -4 -11 -22 -11 -39 1 -27 6 -33 30 -38 33 -8 53 -37 53 -80 1 -25 -16 -46
-103 -132 -58 -57 -124 -112 -148 -124 -24 -11 -42 -25 -39 -29 3 -5 1 -11 -5
-15 -6 -4 -8 -10 -5 -15 3 -5 -9 -16 -27 -23 -18 -8 -44 -26 -58 -41 -14 -15
-38 -34 -55 -43 -29 -16 -29 -16 -7 -24 29 -11 28 -14 -10 -48 -25 -23 -30
-32 -21 -41 13 -15 33 -5 33 16 0 8 6 14 13 13 29 -4 47 2 47 16 0 9 6 12 15
9 10 -4 15 0 15 14 0 24 16 38 22 20 2 -6 10 -8 17 -4 8 6 9 11 2 20 -8 10 -1
17 29 31 22 10 59 35 81 56 23 21 52 46 65 54 13 9 24 22 24 31 0 8 5 12 11 9
6 -4 19 1 28 11 10 11 34 33 54 51 30 27 36 30 42 15 4 -10 -1 -21 -10 -29
-15 -10 -13 -13 14 -27 40 -21 66 -66 38 -66 -7 0 -26 -13 -42 -30 -25 -27
-27 -32 -16 -56 10 -23 16 -26 46 -21 39 6 41 3 20 -33 -8 -14 -14 -42 -15
-63 0 -24 -5 -40 -15 -43 -8 -4 -15 -17 -15 -31 0 -16 -15 -40 -45 -69 -49
-47 -53 -60 -29 -106 9 -17 14 -39 11 -49 -3 -10 2 -27 9 -38 10 -14 14 -49
14 -113 -1 -165 4 -258 12 -258 4 0 5 -45 3 -101 -5 -94 -4 -101 14 -106 17
-4 18 -8 8 -31 -6 -15 -12 -29 -14 -31 -1 -2 -11 7 -22 20 -18 22 -20 23 -27
6 -7 -20 26 -96 51 -117 8 -7 15 -21 15 -31 0 -26 -36 -25 -50 1 -15 28 -30
25 -30 -5 0 -28 -13 -31 -50 -10 -38 21 -107 20 -114 -3 -9 -26 -106 -32 -106
-6 0 11 -5 14 -16 10 -9 -4 -23 -1 -30 5 -8 7 -25 8 -41 4 -44 -11 -256 -6
-264 6 -4 7 -16 6 -35 -4 -21 -11 -42 -13 -79 -7 -31 5 -58 4 -69 -3 -11 -5
-59 -10 -107 -11 -67 -1 -91 3 -105 15 -11 9 -33 20 -51 23 -24 6 -34 3 -41
-11 -6 -10 -14 -17 -19 -15 -4 2 -11 -7 -14 -20 -6 -21 -7 -21 -14 10 -7 28
-12 32 -40 32 -18 0 -48 -6 -66 -14 -24 -10 -39 -11 -55 -4 -26 12 -59 4 -49
-12 3 -5 -5 -14 -18 -19 -18 -7 -24 -16 -22 -35 5 -44 -12 -38 -20 7 -4 23 -9
36 -12 30 -3 -7 -9 -13 -14 -13 -6 0 -8 4 -4 9 3 5 1 13 -5 16 -16 10 -40 -14
-41 -39 0 -21 0 -21 -11 2 -13 26 -33 29 -47 5 -8 -14 -14 -16 -28 -7 -11 6
-29 8 -48 3 -16 -5 -40 -6 -52 -2 -23 5 -23 6 -7 25 10 10 24 16 31 14 7 -3
26 8 42 24 15 17 33 30 39 30 6 0 16 14 24 30 7 17 17 30 23 30 5 0 1 6 -9 12
-11 6 -38 10 -59 10 -22 -1 -45 2 -51 8 -8 6 -30 4 -61 -5 l-50 -14 47 6 c39
4 49 2 54 -11 7 -18 -29 -56 -51 -56 -14 0 -28 -27 -20 -40 3 -5 -12 -22 -32
-39 -30 -25 -34 -31 -18 -31 17 0 16 -2 -5 -13 -55 -27 -105 -39 -174 -42 -40
-1 -81 -7 -91 -12 -11 -7 -30 -7 -49 -2 -17 5 -47 9 -68 9 -20 0 -39 6 -42 13
-3 9 -8 8 -18 -4 -10 -13 -25 -15 -63 -12 l-50 5 -2 147 c0 80 1 140 4 133 9
-24 22 -1 13 26 -4 15 -11 55 -14 90 -5 58 -4 62 15 62 17 0 19 3 10 14 -8 9
-10 28 -6 49 6 28 3 39 -16 56 -13 11 -28 21 -34 21 -6 0 -12 21 -13 48 -1 26
-3 54 -4 62 -3 37 3 80 11 80 5 0 11 -19 15 -42 7 -41 21 -68 36 -68 3 0 5 24
2 54 -4 51 -3 53 22 58 21 4 26 1 26 -14 0 -17 4 -15 25 10 14 17 25 32 25 35
0 3 -16 7 -35 9 -41 5 -48 -9 -8 -15 16 -2 4 -5 -24 -6 -53 -1 -53 -1 -53 30
0 17 -4 28 -10 24 -6 -3 -10 -19 -10 -36 0 -17 -5 -29 -13 -29 -9 0 -13 43
-14 186 -1 102 -5 193 -8 203 -3 9 1 26 9 36 12 16 11 21 -1 33 -12 12 -13 61
-9 305 3 168 10 295 15 300 7 7 6 17 -1 31 -7 12 -11 31 -9 44 1 12 -3 22 -9
22 -8 0 -10 18 -7 54 2 30 0 59 -5 64 -6 6 -3 15 6 25 10 10 12 18 6 22 -18
11 -11 27 10 22 22 -6 23 -5 14 17 -3 9 -12 16 -20 16 -9 0 -14 11 -14 30 0
17 -4 30 -9 30 -4 0 -6 11 -3 26 6 33 -28 244 -40 244 -8 0 -4 -48 9 -92 2
-10 0 -18 -5 -18 -5 0 -15 26 -22 57 -11 50 -10 58 4 68 13 10 15 24 9 75 -6
62 -6 62 17 55 13 -4 35 -21 49 -39 68 -82 187 -201 203 -204 15 -3 17 -6 7
-18 -9 -11 -6 -16 15 -24 14 -5 26 -17 26 -26 0 -9 10 -26 22 -38 13 -11 29
-33 35 -48 7 -16 17 -28 23 -28 5 0 10 -6 10 -13 0 -6 12 -24 28 -38 15 -15
38 -45 52 -68 14 -22 33 -43 42 -46 9 -3 22 -21 28 -40 6 -19 18 -35 25 -35 8
0 16 -8 20 -19 3 -10 30 -41 60 -68 29 -27 57 -62 60 -76 4 -15 13 -27 19 -27
7 0 19 -11 26 -25 7 -14 17 -25 22 -25 4 0 8 -11 8 -25 0 -16 6 -25 15 -25 8
0 15 -6 15 -14 0 -7 9 -16 20 -19 11 -3 20 -9 19 -14 -4 -21 2 -33 17 -33 11
0 13 -6 9 -19 -4 -15 1 -23 22 -33 15 -7 29 -20 29 -28 1 -8 2 -26 3 -39 1
-14 6 -21 14 -18 7 2 23 -4 36 -14 18 -14 22 -26 19 -49 -3 -17 0 -30 5 -30 6
0 18 -7 28 -16 16 -14 21 -14 56 5 53 27 61 39 58 89 -2 39 0 43 19 40 24 -3
49 10 41 22 -8 13 26 113 47 135 10 12 27 48 38 80 11 33 24 69 29 80 30 66
50 134 47 158 -2 15 0 30 5 33 7 4 42 70 45 84 7 42 29 102 40 111 8 6 14 22
14 35 0 17 8 28 25 34 27 10 32 29 14 47 -8 8 -5 17 10 32 19 19 25 33 23 52
-1 4 10 10 23 13 27 7 34 26 10 26 -20 0 -19 6 5 30 14 14 18 28 14 44 -5 20
0 27 25 40 16 9 42 16 56 16 37 0 20 20 -18 21 -18 1 -24 3 -14 6 11 3 16 11
13 19 -3 8 22 66 56 129 50 93 69 118 96 131 32 15 33 17 17 34 -12 14 -15 28
-11 47 4 15 8 35 9 43 4 31 47 34 47 4z m1806 -215 c1 -57 4 -112 9 -122 4 -9
5 -28 1 -41 -3 -12 0 -46 8 -74 12 -48 12 -51 -6 -54 -10 -2 -18 -7 -18 -13 2
-12 -27 -23 -62 -24 -16 -1 -28 -5 -28 -11 0 -6 -18 -7 -45 -3 -38 5 -45 3
-45 -11 0 -14 -18 -21 -42 -17 -5 0 -8 -6 -8 -14 0 -8 -9 -15 -20 -15 -11 0
-20 -4 -20 -10 0 -5 -4 -10 -9 -10 -15 0 2 47 29 77 14 15 24 31 22 36 -1 4 2
7 8 7 5 0 10 11 10 25 0 14 9 34 20 45 11 11 20 24 20 30 0 5 9 25 20 45 11
20 20 42 20 50 0 8 7 15 15 15 9 0 21 12 27 28 11 26 12 26 15 5 5 -27 16 -29
34 -6 10 11 10 17 3 20 -20 7 -49 32 -37 33 19 0 64 85 57 105 -5 13 -3 16 7
13 11 -4 14 -29 15 -109z m-113 -406 c-7 -2 -19 -2 -25 0 -7 3 -2 5 12 5 14 0
19 -2 13 -5z m44 1 c-3 -3 -12 -4 -19 -1 -8 3 -5 6 6 6 11 1 17 -2 13 -5z
m123 -19 c0 -8 -4 -15 -10 -15 -5 0 -7 -38 -5 -92 6 -117 23 -588 23 -608 0
-8 3 -34 7 -57 l7 -42 -53 -15 c-29 -9 -59 -16 -66 -16 -7 0 -13 -5 -13 -11 0
-6 9 -8 20 -5 65 19 112 27 107 19 -3 -5 -6 -31 -8 -58 -1 -28 -7 -60 -13 -73
-7 -17 -6 -29 3 -44 7 -12 9 -23 4 -27 -12 -8 -13 -321 -1 -344 5 -9 6 -23 1
-30 -4 -6 -6 -49 -4 -95 2 -54 -1 -88 -9 -97 -7 -8 -9 -23 -5 -32 4 -10 9 -56
12 -103 2 -47 11 -99 19 -117 8 -17 15 -44 16 -60 1 -15 6 -33 11 -40 5 -7 7
-25 6 -40 -2 -15 -1 -33 3 -38 3 -6 5 -41 4 -79 -2 -53 -6 -70 -20 -78 -9 -5
-78 -10 -153 -11 -98 -2 -138 -6 -141 -15 -4 -14 -72 -17 -72 -3 0 5 -9 11
-20 14 -13 3 -18 11 -14 20 3 8 -6 38 -20 66 l-26 50 23 16 c13 8 29 26 35 39
6 14 23 27 41 31 32 7 202 159 200 179 -4 31 5 42 42 58 36 15 40 20 29 33
-10 12 -10 19 -2 27 7 7 12 18 12 25 0 21 -20 15 -29 -9 -10 -25 -118 -125
-242 -225 -73 -58 -83 -63 -128 -63 -48 0 -48 0 -83 58 -60 97 -82 146 -64
139 9 -4 16 -2 16 4 0 7 12 8 31 4 51 -11 26 9 -37 31 -49 16 -59 24 -79 64
-13 25 -38 59 -54 77 -19 19 -31 43 -31 58 0 14 -4 24 -8 21 -5 -3 -15 6 -22
19 -7 14 -24 32 -37 40 -13 9 -23 25 -23 39 0 31 -66 106 -78 88 -7 -10 -14
-4 -30 22 -12 20 -18 36 -14 36 4 0 13 4 20 9 10 6 9 15 -8 44 l-22 37 20 60
c18 58 18 60 1 87 -18 28 -17 61 3 74 6 4 5 14 -3 27 -17 27 4 80 34 84 12 2
21 10 19 17 -2 8 0 21 4 30 4 9 8 22 10 29 4 19 13 27 32 27 13 0 16 8 14 35
-2 27 0 31 8 20 9 -13 12 -12 25 4 17 23 19 36 5 36 -11 0 25 67 86 161 54 82
86 116 119 129 27 10 34 30 10 30 -20 0 -19 6 7 43 27 40 79 89 110 105 12 7
37 21 53 31 17 11 49 29 73 41 23 12 42 25 42 30 0 4 12 10 28 14 15 3 38 15
52 26 l25 20 -37 0 c-21 0 -38 4 -38 10 0 5 39 11 88 13 48 1 104 4 125 5 27
1 37 -2 37 -13z m17 -307 c-3 -8 -6 -5 -6 6 -1 11 2 17 5 13 3 -3 4 -12 1 -19z
m-1063 -895 c4 -28 2 -41 -9 -49 -23 -17 -18 -25 11 -18 20 5 25 3 22 -7 -3
-8 -18 -16 -33 -19 -32 -5 -32 -27 -1 -22 18 2 18 1 3 -16 -9 -10 -17 -28 -17
-40 0 -12 -4 -22 -10 -22 -15 0 -12 -26 5 -40 22 -19 18 -37 -10 -44 -42 -11
-28 -24 20 -18 39 4 45 2 39 -12 -3 -9 -12 -16 -20 -16 -8 0 -14 -7 -14 -15 0
-8 -8 -15 -19 -15 -10 0 -21 -9 -24 -20 -3 -13 0 -20 9 -20 8 0 14 -7 14 -15
0 -8 5 -15 10 -15 6 0 10 5 10 10 0 6 9 10 21 10 12 0 19 5 16 13 -2 6 3 30
10 52 8 22 14 63 14 92 -2 58 16 143 30 143 5 0 19 -17 33 -38 13 -20 31 -43
40 -51 9 -7 16 -22 16 -32 0 -10 17 -36 38 -58 20 -21 37 -45 37 -51 0 -10 18
-26 43 -36 2 -1 -2 -22 -9 -48 -10 -39 -15 -46 -30 -41 -11 4 -19 2 -19 -4 0
-6 9 -11 20 -11 11 0 20 -4 20 -9 0 -5 -10 -7 -22 -4 -48 10 15 -20 77 -37 58
-16 61 -19 97 -81 21 -35 44 -66 50 -69 7 -3 14 -16 16 -30 1 -14 14 -33 27
-43 14 -10 23 -23 19 -28 -3 -5 2 -19 10 -31 9 -12 16 -26 16 -30 0 -5 -36 -8
-80 -8 -53 0 -80 -4 -80 -11 0 -9 22 -10 75 -6 80 7 89 1 54 -34 -15 -15 -18
-24 -10 -32 8 -8 21 -5 47 10 l36 20 34 -65 c18 -37 31 -69 28 -72 -9 -8 -229
-16 -232 -7 -2 4 -17 7 -33 7 -19 0 -28 -4 -23 -11 4 -7 -19 -10 -77 -8 -46 2
-90 0 -98 -5 -19 -12 -79 -17 -86 -7 -2 5 -33 6 -68 4 l-63 -5 3 38 c3 33 2
36 -7 16 -13 -31 -35 -52 -54 -52 -11 0 -17 15 -22 50 -4 28 -10 50 -15 50 -5
0 -9 -4 -9 -10 0 -5 -4 -10 -8 -10 -5 0 -9 15 -10 34 -1 29 1 33 18 29 17 -5
20 0 20 30 0 19 6 38 13 41 8 3 7 8 -5 16 -14 9 -18 25 -18 75 0 35 -5 67 -10
70 -7 4 -9 24 -5 48 3 23 7 67 10 97 2 30 9 82 15 115 5 33 10 94 9 135 -1 84
12 170 42 266 22 73 43 83 53 27z m1091 -1250 c33 -24 34 -63 2 -61 -13 1 -38
-4 -55 -11 -28 -12 -35 -11 -50 1 -20 17 -237 24 -247 8 -11 -17 -35 -11 -35
9 0 19 23 27 101 35 20 2 42 6 48 10 7 4 18 2 26 -4 11 -9 19 -10 28 -1 34 28
150 37 182 14z m-407 -55 c-3 -22 -9 -23 -88 -26 -46 -2 -89 -6 -95 -10 -5 -5
-28 -5 -50 -1 -33 5 -35 6 -11 8 26 1 89 15 181 41 54 15 67 12 63 -12z m-630
-55 c-10 -2 -26 -2 -35 0 -10 3 -2 5 17 5 19 0 27 -2 18 -5z m59 -9 c-3 -3
-12 -4 -19 -1 -8 3 -5 6 6 6 11 1 17 -2 13 -5z m40 0 c-3 -3 -12 -4 -19 -1 -8
3 -5 6 6 6 11 1 17 -2 13 -5z m1046 -31 c-7 -2 -21 -2 -30 0 -10 3 -4 5 12 5
17 0 24 -2 18 -5z m-826 -9 c-3 -3 -12 -4 -19 -1 -8 3 -5 6 6 6 11 1 17 -2 13
-5z m570 0 c-3 -3 -12 -4 -19 -1 -8 3 -5 6 6 6 11 1 17 -2 13 -5z m86 -1 c-13
-2 -35 -2 -50 0 -16 2 -5 4 22 4 28 0 40 -2 28 -4z m-460 -10 c-13 -2 -35 -2
-50 0 -16 2 -5 4 22 4 28 0 40 -2 28 -4z m115 0 c-10 -2 -26 -2 -35 0 -10 3
-2 5 17 5 19 0 27 -2 18 -5z"/>
<path d="M440 1220 c0 -5 5 -10 11 -10 5 0 7 5 4 10 -3 6 -8 10 -11 10 -2 0
-4 -4 -4 -10z"/>
<path d="M3366 1861 c-3 -5 4 -11 16 -14 30 -8 35 -1 9 12 -11 6 -22 7 -25 2z"/>
<path d="M3345 1819 c-5 -16 -13 -20 -33 -16 l-26 5 25 -18 c22 -17 25 -17 41
-3 17 15 18 15 18 0 0 -10 5 -17 10 -17 6 0 10 7 10 15 0 19 2 19 67 -2 33
-10 49 -20 41 -24 -22 -14 -1 -20 33 -12 18 5 35 15 37 23 3 9 -1 11 -11 7
-19 -7 -75 8 -143 39 -64 29 -61 29 -69 3z"/>
<path d="M3156 1559 c-3 -8 -10 -32 -15 -54 -5 -22 -12 -48 -16 -57 -4 -11 -3
-18 4 -18 11 0 12 5 30 90 9 42 7 68 -3 39z"/>
</g>
</svg>
